/* XPM */
static char *koto_south[] = {
/* columns rows colors chars-per-pixel */
"64 64 210 2 ",
"   c #211922",
".  c #3F3F3F",
"X  c #7C4838",
"o  c #443945",
"O  c #4B474B",
"+  c #554656",
"@  c #535253",
"#  c #59545A",
"$  c #5E5D5E",
"%  c #575459",
"&  c #6A5555",
"*  c #6F4A48",
"=  c #55764A",
"-  c #5E4960",
";  c #655C65",
":  c #675568",
">  c #765C79",
",  c #624D64",
"<  c #6C626D",
"1  c #6D6C6D",
"2  c #656465",
"3  c #6B7D64",
"4  c #736475",
"5  c #736C74",
"6  c #796B7B",
"7  c #7A657C",
"8  c #757475",
"9  c #7A747A",
"0  c #7C7B7C",
"q  c #787575",
"w  c #74736B",
"e  c #923C36",
"r  c #B63A31",
"t  c #A33832",
"y  c #EA332B",
"u  c #E8342A",
"i  c #E93932",
"p  c #E93C37",
"a  c #E92F27",
"s  c #8D413A",
"d  c #B24D34",
"f  c #C44C3E",
"g  c #E84839",
"h  c #E3573E",
"j  c #DC6A39",
"k  c #E16438",
"l  c #E4703A",
"z  c #AE615F",
"x  c #867D7B",
"c  c #8D6D6D",
"v  c #B06F6D",
"b  c #A25755",
"n  c #C54741",
"m  c #D35249",
"M  c #EA4844",
"N  c #E75A48",
"B  c #E95656",
"V  c #EA4E52",
"C  c #E56B58",
"Z  c #EA5E6A",
"A  c #C8706B",
"S  c #ED6D68",
"D  c #ED6D77",
"F  c #53943F",
"G  c #5CBC3A",
"H  c #5CB53C",
"J  c #54A837",
"K  c #62BE3D",
"L  c #5EC239",
"P  c #63C43D",
"I  c #66CA3A",
"U  c #6BCB3C",
"Y  c #69C53D",
"T  c #72CE3E",
"R  c #76D03F",
"E  c #79D13F",
"W  c #649754",
"Q  c #5CA544",
"!  c #5DB541",
"~  c #65BA46",
"^  c #6AB551",
"/  c #79BF5B",
"(  c #67A753",
")  c #73876C",
"_  c #79B363",
"`  c #69C546",
"'  c #79D140",
"]  c #77D040",
"[  c #73C555",
"{  c #6CC152",
"}  c #7FC469",
"|  c #DC853E",
" . c #89B678",
".. c #87BD6E",
"X. c #D99842",
"o. c #D6AA46",
"O. c #EE877F",
"+. c #80C869",
"@. c #8CCA78",
"#. c #CCE853",
"$. c #CBF356",
"%. c #7E6681",
"&. c #816D83",
"*. c #866C89",
"=. c #846787",
"-. c #817E81",
";. c #87718A",
":. c #8E7391",
">. c #927496",
",. c #9C7D9F",
"<. c #967799",
"1. c #9E7FA1",
"2. c #A27FA6",
"3. c #ED7086",
"4. c #EC6D81",
"5. c #848284",
"6. c #888688",
"7. c #8D8B8D",
"8. c #8B8383",
"9. c #908E8F",
"0. c #918C90",
"q. c #949393",
"w. c #9B9B9B",
"e. c #999599",
"r. c #9AB98C",
"t. c #A3B698",
"y. c #A7AF9E",
"u. c #9F86A1",
"i. c #A282A5",
"p. c #A683A9",
"a. c #AB8AAE",
"s. c #A985AC",
"d. c #AE89B2",
"f. c #AC86B0",
"g. c #B58FB9",
"h. c #B28CB5",
"j. c #B691BA",
"k. c #BA93BE",
"l. c #B088AD",
"z. c #A3A3A4",
"x. c #ACACAC",
"c. c #AFA5A5",
"v. c #AFB5AB",
"b. c #B3B3B3",
"n. c #BCBBBC",
"m. c #B8BBB4",
"M. c #B0B4AC",
"N. c #A88D8D",
"B. c #D29290",
"V. c #F29895",
"C. c #F08985",
"Z. c #F4A09D",
"A. c #E4A09F",
"S. c #CE86A9",
"D. c #EE8EB2",
"F. c #EE89AB",
"G. c #F2ABA8",
"H. c #F3B4B3",
"J. c #D4AFAE",
"K. c #98CB87",
"L. c #95D281",
"P. c #A4D694",
"I. c #B9D3B1",
"U. c #BF96C3",
"Y. c #C198C5",
"T. c #CA9FCF",
"R. c #C49AC8",
"E. c #CC9FD0",
"W. c #E09ECB",
"Q. c #C7A8C8",
"!. c #CDA1D2",
"~. c #D6A9DB",
"^. c #D9AADE",
"/. c #D3A5D8",
"(. c #D6BBD6",
"). c #C9B9C6",
"_. c #F1A0CD",
"`. c #F1A4D2",
"'. c #DDADE2",
"]. c #DFB7E2",
"[. c #E0AFE6",
"{. c #F2AEE2",
"}. c #E1B0E6",
"|. c #E5B3EA",
" X c #E6B8EB",
".X c #EDBAF3",
"XX c #EBB7F1",
"oX c #F1BCF6",
"OX c #F5BFFB",
"+X c #F8BFFE",
"@X c #F3B4EA",
"#X c #C3C2C3",
"$X c #CCCBCC",
"%X c #CFD0CF",
"&X c #D4D4D4",
"*X c #DBDBDB",
"=X c #F1D4D4",
"-X c #DCEBD7",
";X c #D2E7CB",
":X c #EDE0DF",
">X c #E0DFE0",
",X c #F6C0FD",
"<X c #F8C2FE",
"1X c #E4E4E4",
"2X c #ECEBEC",
"3X c #FCE9E9",
"4X c #F0EFF0",
"5X c #F4F4F4",
"6X c #FFFFFF",
"7X c #FAF8F7",
/* pixels */
"OXOXOXOXOXOXOXOXOXOXOXOXOXOXOXOXOXOXOXOXOXOXOXOXOXOXOXOXOXOXOXOXOXOX,X/.+ ~.<X,X,XOXOXOXOXOXOXOXOXOXOX,XOXOXOXOXOXOXOXOXOXOXOXOX",
"OXOXOXOXOXOXOXOXOXOXOXOXOXOXOXOXOXOXOXOXOXOXOXOXOXOXOXOXOX,XOX,XOXOX<Xi.O p.,X,X,X,X,XOXOXOX,X,XOXOXOXOXOXOXOXOXOXOXOXOXOXOXOXOX",
"OXOXOXOXOXOXOXOXOXOXOXOXOXOXOXOXOXOXOXOXOXOXOXOXOX,X<XOX,X,X|.i. X<XXX6 z.6 .X,XoXa.}.OXOX,X,X,XOXOXOXOXOXOXOXOXOXOXOXOXOXOXOXOX",
"OXOXOXOXOXOXOXOXOXOXOXOXOXOX,XOXOXOXOXOXOXOXOXOXOX,Xk.'.<X<XU.. T.<XR.9 2X8 !.<X~.o j.<X,X'.a.oXOXOXOXOXOXOXOXOXOXOXOXOXOXOXOXOX",
"OXOXOXOXOXOXOXOXOXOXOXOXOXOXOXOXOXOXOXOXOXOXOXOX,X|.+ i.<X<X>.% u.<X:.x.6Xz.<.<Xa.@ ;.<X+X2.O |.,XOXOXOXOXOXOXOXOXOXOXOXOXOX,XoX",
"OXOXOXOXOXOXOXOXOXOXOXOXOXOXOXOXOXOXOXOXOXOXOXOX<XY.O 6 OX X4 M.6 '.< >X6X*X4 |.&.c.5 W.3.M t S.,XOXOXOXOXOXOXOXOXOXOXOXOXOX,X,X",
"OXOXOXOXOXOXOXOXOXOXOXOXOXOXOXOXOXOXOXOXOXOXOXOX<X>.w.8 '.T.9 2X5 :.6.6X6X7X .,.5 1X;.n a y y V {.,XOXOXOXOXOXOXOX,XOXOXOXOXOXOX",
"OXOXOXOXOXOXOXOXOXOXOXOXOXOXOXOXOXOXOXOXOXOXOXOXXX4 *X7.d.1.z.6Xe.o ).6X6X7XQ.o 7.6XJ.y y y y y D.,X,X,XOXOXOXOX,XoXOXOXOXOXOXOX",
"OXOXOXOXOXOXOXOXOXOXOXOXOXOXOXOXOXOXOXOXOXOXOX<X!.9 7Xn.7 4 &X6X%X0 4X6X6X6X2X& v Z.V.i a y y y Z D 4._.,XoXOX,X,XOXOXOXOXOXOXOX",
"OXOXOXOXOXOXOXOXOXOXOXOXOXOXOXOXOXOXOXOXOXOXOX<X,.w.6X2X# 2 5X6X7X5X6X6X6X6X3XB y y i y a a a y a a a M _.,XOX,XOXOXOXOXOXOXoX,X",
"OXOXOXOXOXOXOXOXOXOXOXOXOXOXOXOXOXOXOXOXOXOXOX.X6 $X6X6X0 q.6X6X6X6X6X6X6X6XV.a y y y y k | k u y y y a 3.,X,X,XOXOXOXOXOXOX,X,X",
"OXOXOXOXOXOXOXOXOXOXOXOXOXOXOXOXOXOXOXOXOXOX<X/.5 5X6X6X1X2X6X6X6X6X6X6X6X6XC.a y y y k #.$.#.l a y y u D ,X,X.XOXOXOXOXOXOXOXOX",
"OXOXOXOXOXOXOXOXOXOXOXOXOXOXOXOXOXOXOXOXOXOX<XY.5.6X6X6X6X6X6X6X6X6X6X6X6X6XH.y y y y | $.$.$.X.y y a p D.<X,X,XOXOXOXOXOXOXOXOX",
"OXOXOXOXOXOXOXOXOXOXOXOXOXOXOXOXOXOXOXOXOXOX<XU.5.6X6X6X6X6X6X6X6X6X6X6X6X6X7XV.g i a l $.$.$.| y p V F.oX,X,X,XOXOXOXOXOXOXOXOX",
"OXOXOXOXOXOXOXOXOXOXOXOXOXOXOXOXOXOXOXOXOXOX<XU.5.6X6X6X6X6X6X6X6X6X6X6X6X6X6X6XH.M y g | o.X.i a M D.OX,XoXOXOXOXOX,X,XOXOXOXOX",
"OXOXOXOXOX,XOXOXOXOXOXOXOXOXOXOXOXOXOXOXOXOX<XU.5.6X6X6X6X6X6X6X6X6X6X6X6X6X6X7XS y y y u u y y a a V @X,XOXOXOXOXOXoX,XOXOXOXOX",
"OXOXOXOXOXOXOXOXOXOXOXOXOXOXOXOXOXOXOXOXOXOX+XY.5.6X6X6X6X6X6X6X6X6X6X6X6X6X6X=Xg y y y y a y y y y p `.<XOXOXOXOXOXOXOXOXOXOXOX",
"OXOXOXOXOXOXOXOXOXOXOXOXOXOXOXOXOXOXOXOXOXOXOXY.5.6X6X6X6X6X6X6X6X6X6X6X6X6X6X3XM y y y y B i y y y M {.OXOXOXOXOXOXOXOXOXOXOXOX",
"OXOXOXOXOXOXOXOXOXOXOXOXOXOXOXOXOXOXOXOXOXOX+XY.5.6X6X6X6X6X6X6X6X6X6X6X6X6X6X6XV.i y y C =XS y y p F.OXOXOXOXOXOXOXOXOXOXOXOXOX",
"OXOXOXOXOXOXOXOXOXOXOXOXOXOXOXOXOXOXOXOXOXOXOXY.5.6X6X6X6X6X6X6X6X6X6X6X6X6X6X6X6XH.C.V.=X6X7XH.A 2.OXOXOXOXOXOXOXOXOXOXOXOXOXOX",
"OXOXOXOXOXOXOXOXOXOXOXOXOXOXOXOXOXOXOXOXOXOXOXY.5.6X6X6X6X6X6X6X6X6X6X6X6X6X6X6X6X6X6X6X6X6X6X6X8.g.<XOXOXOXOXOXOXOXOXOXOXOXOXOX",
"OXOXOXOXOXOXOXOXOXOXOXOXOXOXOXOXOXOXOXOXOXOXOXY.5.7X5X2X2X2X2X2X2X5X6X6X7X5X5X5X5X5X7X7X6X6X6X6X6.g.<XOXOXOXOXOXOXOXOXOXOXOXOXOX",
"OXOXOXOXOX,XOXOXOXOXOXOXOXOXOXOXOXOXoX}.OXOX+XY.6.*X2 8 8 8 8 8 8 1 1Xx.1 9 8 8 0 8 5 e.6X7X*Xq.+ j.<XOXOXOXOXOXOXOXOXOXOXOXOXOX",
"OXOXOXOXOXOXOXOXOXOXOXOXOXOXOXOXOXOXXXY.OXOXOXY.# 5.0 2X2X2X2X2X1X8 *X9.z.1X>X>X-X>Xn.8 $X5.8 x.0 g.<XOXOXOXOXOXOXOXOXOXOXOXOXOX",
"OXOXOXOXOXOXOXOXOXOXOXOXOXOXOXoX^.+XoXs.oXOX+XY.2 9 -.6X6X6X6X6X7X9 $X6.n.6X6X6X6X6X&XO 9 m.4X6X7.g.<XOXOXOXOXOXOXOXOXOXOXOXOXOX",
"OXOXOXOXOXOXOXOXOXOXOXOXOXoXOX!.l.<XXX<.XXOX+XY.6.#X5.6X6X6X6X6X7X1 2 @ n.6X6X6X6X6X&X8 5X6X6X6X7.g.<XOXOXOXOXOXOXOXOXOXOXOXOXOX",
"OXOX,XoXOXOXOXOXOXOXOXOX+X+X+Xg.>.+X|.*.@X+X+XY.5.$X1 ).#X#X#X#Xn.2 $X5.u.$X&X$X&X&Xx.9 7X6X6X6X7.j.<XOXOXOXOXOXOXOXOXOXOXOXOXOX",
"OX,X|./.OXOXOXOXOXOXOXOX+X+X+Xf.> XX'.=.oX+X+XY.5.1X9.6.6.7.6.6.7.q.5Xn.9  .%.-.0 5.0 z.6X6X6X6X7.j.<XOXOXOXOXOXOXOXOXOXOXOXOXOX",
"OXoXh.|.+XOXOXOXOX+X+XOXOX+XXX=.o !.!.o =.[.+XY.5.6X6X6X6X6X6X6X6X6X6X6X6X6X7X6X6X6X7X6X6X6X6X6X7.g.<XOXOXOXOXOXOXOXOXOXOXOXOXOX",
",X|.2.OXOXOXOXT.>.>.}.OX.X'.XXE., oXg.  o > +XR.5.6X6X6X6X6X6X6X4X7X6X6X6X6X6X6X6X6X6X6X6X6X6X6X7.j.<XOXOXOXOXOXOXOXOXOXOXOXOXOX",
"OX.X,.p.|.OXoXf.Y.=.:.}.~.> R.|.> |.2.%.!.o !.2.5.6X6X6X6X6X6X1X5.2X6X6X6X6X6X6X6X6X6X6X6X6X6X6X7.j.<XOXOXOXOXOXOXOXOXOXOXOXOXOX",
"OX,XXXh.*.'.OXU.oX2.> |.<.: <.'.2.!.oXXX+X>.- , -.6X6X6X6X6X6Xq.z.6X6X6X6X6X6X6X6X6X6X6X6X6X6X6X7.g.<XOXOXOXOXOXOXOXOXOXOXOXOXOX",
"OXOXOX<XR.2.oX<.U.- h.<X/.^.OX<X[.!.OXOXOXOX|.k.5.6X6X6X6X6X*X$ #X6X6X6X6X6X6X6X6X6X6X6X6X6X6X6X7.j.<XOXOXOXOXOXOXOXOXOXOXOXOXOX",
"OXOXOX+XE.U.+XY.=.s.oXOXOXOXOXOXOXoXOXOXOXOX<XY.5.6X6X6X6X6X7Xb.1 b.6X6X6X6X6X6X6X6X6X6X6X6X6X6X7.j.<XOXOXOXOXOXOXOXOXOXOXOXOXOX",
"OXOXOXoXR.|.OX+XOXOXOXOXOXOXOXOXOXOXOXOXOXOX<XY.5.6X6X6X6X6X6X6X1X$X6X6X6X6X6X6X6X6X6X6X6X6X6X6X7.g.<XOXOXOXOXOXOXOXOXOXOXOXOXOX",
"OXOXOXoX.X+XOXOXOXOXOXOXOXOXOXOXOXOXOXOXOXOXOXY.5.6X6X6X6X6X6X6X6X6X6X6X6X6X6X6X6X6X6X6X6X6X6X6X7.g.<XOXOXOXOXOXOXOXOXOXOXOXOXOX",
"OXOXOXOXOXOXOXOXOXOXOXOXOXOXOXOXOXOXOXOXOXOX<XR.; z.z.z.z.z.z.c.z.z.z.z.z.z.z.z.z.z.z.c.z.z.z.z.2 k.<XOXOXOXOXOXOXOXOXOXOXOXOXOX",
"OXOXOXOXOXOXOXOXOXOXOXOXOXOXOXOXOXOXOXOXOXOXOX|.i.i.0.i.*.# x e c @ . 1 w.w.q.O . 7.c s 4 % 1.1.i.'.,XOXOXOXOXOXOXOXOXOXOXOXOXOX",
"OXOXOXOXOXOXOXOXOXOXOXOXOXOXOXOXOX<X<X<XOXOXOXOX<X<X+X+X!.0 O.k f 6.b.7.6X6X&X9 q.8.S l A c ,X<X<X,XOXOXOXOXOXOXOXOXOXOXOXOXOXOX",
"OXOXOXOXOXOXOXOXOXOXOXOXOXOXoXd.x <.s.k.!.'.XX+X+X<X+X<XT.5.G.g A 2X4Xq 1X6Xz.z.7X5.e g B.*.oXOX<XOXOXOXOXOXOXOXOXOXOXOXOXOXOXOX",
"OXOXOXOXOXOXOXOXOXOXOXOXOXOXd.$ w.n.z.7.-.6 6 %.:.1.h.T.d.0 H.N m z.1X7.n.7X%.I.z.w r N B.*.OXOXOXOXOXOXOXOXOXOXOXOXOXOXOXOXOXOX",
"OXOXOXOXOXOXOXOXOXOXOXOXOX|.e.0 &X6X6X6X6X4X1X*X#Xx.e.5.8 % A k C b q M.9.&X5.x.+ B.C k v % a.OXOXOXOXOXOXOXOXOXOXOX,XOXOXOXOXOX",
"OXOXOXOXOXOXOXOXOXOXOXOXOXoXu.$ >X6X6X6X6X6X6X6X6X6X6X6X5X) J.G.S k m A.z N.b A.n d e X q q.< }.,XOXOXOXOXOXOXOXOXOXOXOXOXOXOXOX",
"OXOXOXOXOXOXOXOXOXOXOXOXOXOX|.4 6 -.q.z.n.%X1X4X7X6X6X6X5X9 2X6XG.k m N k r d s * x x.*X7X6X7.k.<XOXOXOXOXOXOXOXOXOXOXOXOXOXOXOX",
"OXOXOXOXOXOXOXOXOXOXOXOXOXOXOXXX^.T.k.i.>.&.6 8 0 7.w.b.b.8 5X6X3X=Xv e X @ 8.m.2X6X6X6X6X6Xm.:.,XOXOXOXOXOXOXOXOXOXOXOXOXOXOXOX",
"OXOXOXOXOXOXOXOXOXOXOXOXOXOXOXOXOX<X<X<X,X,X.X}./.Y.d.,.6 8 7X6X%Xx 8 q.#X2X6X6X6X6X6X5X&Xz.5 ;.oX,XOXOXOXOXOXOXOXOXOXOXOXOXOXOX",
"OXOXOXOXOXOXOXOXOXOXOXOXOXOXOXOXOXOXOXOXOXOXOXOX<X<X<X<XE.-.6X5X9 5.5X6X6X6X6X6X2X$Xw.9 1 ; T.XXOXOXOXOXOXOXOXOXOXOXOXOXOXOXOXOX",
"OXOXOXOXOXOXOXOXOXOXOXOXOXOXOXOXOXOXOXOXOXOXOXOXOXOXOXOXE.-.6X&X9.-.5X6X6X1X#X7.9 6.M.>X&X&.OXOXOXOXOXOXOXOXOXOXOXOXOXOXOXOXOXOX",
"OXOXOXOXOXOXOXOXOXOXOXOXOXOXOXOXOXOXOXOXOXOXOXOXOXOXOX,X!.x 6X2Xe.2 n.b.6.$ 8 n.1X6X6X6X&X&.OXOXOXOXOXOXOXOXOXOXOXOXOXOXOXOXOXOX",
"OXOXOXOXOX<XOXOXOXOXOXOXOXOXOXOXOXOXOXOXOXOXOXOXOXOX,X,X!.0 -X6X1X9.8 q.$Xw.z.7X6X7X7X6XI.0 oXOXOXOXOXOXOXOXOXOXOXOXOXOXOXOXOXOX",
"OXOXOXOXOXOXOXOXOXOXOXOXOXOXOXOXOXOXOXOXOXOXOXOX,XoXOX<XQ.J [ -XP.P.-XL.K.q.W +.-XP.@.;X[ ~ ).OXOXOXOXOXOXOXOXOXOXOXOXOXOXOXOXOX",
"OXOXOXOXOXOXOXOXOXOXOXOXOXOXOXOXOXOXOXOXOXOXOXOX,X,X,X.X .I ` @.` ` K.P ~ 3 J I @.` Y +.` U [  XOXOXOXOXOXOXOXOXOXOXOXOXOXOXOXOX",
"OXOXOXOXOXOXOXOXOXOXOXOXOXOXOXOXOXOXOXOXOXOXOXOX,XoX,Xm.Y R K ~ U Y ~ U I _ K T ~ L U P G ] I t.OXOXOXOXOXOXOXOXOXOXOXOXOXOXOXOX",
"OXOXOXOXOXOXOXOXOXOXOXOXOXOXOXOXOXOXOXOXOXOXOXOX,X,X.X..U R G L E Y G ' R ^ ` E G P ' Y H ] U /  XOXOXOXOXOXOXOXOXOXOXOXOXOXOXOX",
"OXOXOXOXOXOXOXOXOXOXOXOXOXOXOXOXOXOXOXOXOXOXOXOX,X,X(.` E U ~ I E K G ] ` ! U ' K G ] U ~ P ] ` n.<XOXOXOXOXOXOXOXOXOXOXOXOXOXOX",
"OXOXOXOXOXOXOXOXOXOXOXOXOXOXOXOXOXOXOXOXOXOXOXOXoX<Xv.I U ` } T U { [ T Y ! P ' ~ ^ U T ^ ! U I r.,XOXOXOXOXOXOXOXOXOXOXOXOXOXOX",
"OXOXOXOXOXOXOXOXOXOXOXOXOXOXOXOXOX,XOXOXOXOXOXOX<X<Xr.I P _ @.U I @.} T I ^ ! T } K.L ] Q = L I  .oXOXOXOXOXOXOXOXOXOXOXOXOXOXOX",
"OXOXOXOXOXOXOXOXOXOXOXOXOXOXOXOXOXOXOXOXOXOXOXOXOX<Xr.L ( $ ( I G ) W I L = H I Q 8 ! U F 6 r.L r.OXOXOXOXOXOXOXOXOXOXOXOXOXOXOX",
"OXOXOXOXOXOXOXOXOXOXOXOXOXOXOXOXOXOXOXOXOXOXOXOXOXOX].v.].'.z.L L.>XI.G _ Q. .` I.>X .! y. X,X).&X+XOXOXOXOXOXOXOXOXOXOXOXOXOXOX",
"OXOXOXOXOXOXOXOXOXOXOXOXOXOXOXOXOXOXOXOXOXOXOXOXOXOXOXoX].'.~.3 m.2X$X) (.<XQ.) 1X2X-.0.~.'.'.oX+X+XOXOXOXOXOXOXOXOXOXOXOXOXOXOX",
"OXOXOXOXOXOXOXOXOXOXOXOXOXOXOXOXOXOXOXOXOXOXOXOXOXOX<X>.< 9 %.1 8 0 9 # ].<Xd.% %.) 8 6 9 x ; R.+X+X+XoXOXOXOXOXOXOXOXOXOXOXOXOX",
"OXOXOXOXOXOXOXOXOXOXOXOXOXOXOXOXOXOXOXOXOXOXOXOXOXOX,X;.).7X7X7X7X7X4X9 ^.<Xp.z.7X5X7X7X5X7X7.k.+X+XoX+XOXOXOXOXOXOXOXOXOXOXOXOX",
"OXOXOXOXOXOXOXOXOXOXOXOXOXOXOXOXOXOXOXOXOXOXOXOXOXOX,X&.x.*X*X*X*X*X&X5 ^.<Xi.q.*X*X*X*X*X*X5.k.+XOXOXOXOXOXOXOXOXOXOXOXOXOXOXOX",
"OXOXOXOXOXOXOXOXOXOXOXOXOXOXOXOXOXOXOXOXOXOXOXOXOX,X,Xi.: < < < < < ; 4 |.<XU.; 4 < ; < > < : !.+XOXOXOXOXOXOXOXOXOXOXOXOXOXOXOX"
};
