/* XPM */
static char *koto_east[] = {
/* columns rows colors chars-per-pixel */
"64 64 194 2 ",
"   c #35372C",
".  c #3E4034",
"X  c #494A3C",
"o  c #595A4A",
"O  c #595A53",
"+  c #5F6058",
"@  c #557B5C",
"#  c #676855",
"$  c #6F705C",
"%  c #507E69",
"&  c #537668",
"*  c #676866",
"=  c #6A746D",
"-  c #757660",
";  c #777862",
":  c #797A68",
">  c #7D7E71",
",  c #7D7D7B",
"<  c #757874",
"1  c #5B8A57",
"2  c #5B925A",
"3  c #5F995C",
"4  c #6A9B5E",
"5  c #649459",
"6  c #6BA35E",
"7  c #4D9566",
"8  c #5F9A66",
"9  c #5C9A6B",
"0  c #589667",
"q  c #488D71",
"w  c #57877A",
"e  c #4E9A77",
"r  c #4C957B",
"t  c #4E9777",
"y  c #529D74",
"u  c #529B7A",
"i  c #518B6E",
"p  c #6B9C60",
"a  c #609D68",
"s  c #619C64",
"d  c #739A65",
"f  c #7B8479",
"g  c #669978",
"h  c #57A875",
"j  c #5CB579",
"k  c #6EA762",
"l  c #6FA864",
"z  c #71AA65",
"x  c #78A369",
"c  c #61BE7E",
"v  c #65A57C",
"b  c #86876E",
"n  c #828271",
"m  c #8A8B72",
"M  c #86877E",
"N  c #8F9076",
"B  c #95967A",
"V  c #999A7E",
"C  c #949579",
"Z  c #4F9B81",
"A  c #569A89",
"S  c #5A9D90",
"D  c #7C8D88",
"F  c #7B9284",
"G  c #55A68C",
"H  c #55A687",
"J  c #5AB383",
"K  c #5DB989",
"L  c #56AA92",
"P  c #5EBD94",
"I  c #5BB59D",
"U  c #5EBD9A",
"Y  c #59B396",
"T  c #62B481",
"R  c #65A398",
"E  c #63B998",
"W  c #63B897",
"Q  c #5EBDA3",
"!  c #5CB7A0",
"~  c #61BEA5",
"^  c #5FC09B",
"/  c #63C381",
"(  c #66CA86",
")  c #61C28B",
"_  c #66CB8B",
"`  c #68CC89",
"'  c #60C291",
"]  c #65CC91",
"[  c #69D594",
"{  c #6CDB96",
"}  c #6DDE98",
"|  c #67D291",
" . c #6FE19A",
".. c #71E69C",
"X. c #73EA9E",
"o. c #5FC0A1",
"O. c #60C1A3",
"+. c #62C5AB",
"@. c #65CCB3",
"#. c #66CFB8",
"$. c #67D1BB",
"%. c #74EEA0",
"&. c #77F3A4",
"*. c #78F6A6",
"=. c #79F8A7",
"-. c #7BFCAA",
";. c #6CDAC5",
":. c #6DDEC9",
">. c #68D2C0",
",. c #6EE0CC",
"<. c #70E4CF",
"1. c #71E6D2",
"2. c #73EBD6",
"3. c #74ECD8",
"4. c #76F2DE",
"5. c #77F5E0",
"6. c #78F7E2",
"7. c #7AFBE6",
"8. c #7BFEE9",
"9. c #848582",
"0. c #878B84",
"q. c #8B8C83",
"w. c #8C8D8C",
"e. c #89948B",
"r. c #939485",
"t. c #9C9D83",
"y. c #93948A",
"u. c #9F9F8A",
"i. c #979886",
"p. c #839B97",
"a. c #939493",
"s. c #939994",
"d. c #9C9C9C",
"f. c #989C97",
"g. c #95A39A",
"h. c #9FA486",
"j. c #A1A284",
"k. c #A4A58A",
"l. c #AAAB8C",
"z. c #A1A19C",
"x. c #BDBD9C",
"c. c #B5B696",
"v. c #98A4A1",
"b. c #A5A5A4",
"n. c #ABABAA",
"m. c #A6AAA5",
"M. c #AFB0A8",
"N. c #B0B0AF",
"B. c #BCBDAD",
"V. c #B1B2A4",
"C. c #B5B5B5",
"Z. c #BBBBBB",
"A. c #B3B9B2",
"S. c #BFC0BE",
"D. c #C1C19E",
"F. c #C2CD9F",
"G. c #C2C3A2",
"H. c #C3CDA0",
"J. c #C9CAA5",
"K. c #C4C5AD",
"L. c #C7C8A9",
"P. c #CDCDA9",
"I. c #CFD3AB",
"U. c #D1D2AB",
"Y. c #C4C4B0",
"T. c #DCDCB4",
"R. c #DBDEB4",
"E. c #DDE1B4",
"W. c #E0E1B7",
"Q. c #E4E5BA",
"!. c #EAEABE",
"~. c #C3C3C2",
"^. c #C9CACA",
"/. c #C7C8C8",
"(. c #CED5CD",
"). c #D0D1CF",
"_. c #D4D5D4",
"`. c #DCDCDB",
"'. c #D8DAD7",
"]. c #DFE0DF",
"[. c #EDEEC1",
"{. c #F3F3C5",
"}. c #F6F6C9",
"|. c #FFFFCF",
" X c #FFFFD1",
".X c #DFDFE0",
"XX c #E3E3E3",
"oX c #ECECEC",
"OX c #E7E8E8",
"+X c #F0F0EF",
"@X c #EFEFF0",
"#X c #F5F5F5",
"$X c #FFFFFF",
"%X c #F7F8F8",
/* pixels */
"|.|.|.|.|.|.|.|.|.|.|.|.|.|.|.|.|.|.|.|.|.|.|.|.|.|.|.|.|.|.|.|.|.|.|.|.|.|.|.|.|.|.|.|.|.|.|.|.|.|.|.|.|.|.|.|.|.|.|.|.|.|.|.|.",
"|.|.|.|.|.|.|.|.|.|.|.|.|.|.|.|.|. X|.|.|.|.|.|.|.|.|.|.|.|.|.|.|.|.|. X|.|.|.|.|.|.|.|.|.|.|.|.|.|.|. X|.|.|.|. X|.|.|.|.|.|.|.",
"|. X|.|.|.|.|.|.|.|.|.|.|.|.|.|.|.|.|.|.|.|.|.|.|.|.|.|.|.|.|.|.|.|.|.|.|.|.|.|.|.|.|.|.|.|.|.|.|.|.|.|.|.|.|.|.|.|.|.|.|.|.|.|.",
"|.|.|.|.|.|.|.|.|.|.|. X|.|.|.|.|.|.|.|.|.|.|.|.|.|.|. X|.|.|.|.|.|.|.|.|.|.|.|.|.|. X|.|.|.|.|.|.|.|.|.|.|.|.|.|.|.|.|.|.|.|.|.",
"|.|.|.|.|.|.|.|.|.|.|.|.|.|.|.|.|.|.|.|.|.|.|.|.|.|.|.|.|.|.|.|.|.|.|.|.|.|.|.|.|.|.|.|.|.|.|.|.|.|.|.|.|.|.|.|.|.|.|.|.|.|. X|.",
"|.|.|.|.|.|.|.|.|.|.|.|.|.|.|.|.|.|.|.|. X|.|.|.|.|.|.|.|.|.|.|.|.|.|.|.|.|.|.|.|.|.|.|.|.|.|.|.|.|.|.|.|. X|.|.|.|.|.|.|.|.|.|.",
"|.|.|.|.|.|.|. X|.|.|.|.|.|.|. X|.|.|.|.|.|.|.|.|.|.|.|.|.|.|. X|.|.|.|.|.|.|.|.|.|.|.|.|.|.|.|.|.|.|.|.|.|.|.|.|.|.|.|.|.|.|.|.",
"|.|.|.|.|.|.|.|.|.|.|.|.|.|.|.|.|.|.|.|.|.|.|.|.|.|.|.|.|.|.|.|.|.|.|.|.|. X|.|.|.|.|.|.|.|.|.|.|.|.|.|.|.|.|.|.|.|.|.|.|.|.|.|.",
"|.|.|.|.|.|.|. X|.|.|.|.|.|.|.|.|.|.|.|.|.|.|.|.|.|.|.|.|.|.|.|.|.|.|.|.|.|.|.|.|.|.|.|.|.|.|.|.|.|. X|.|.|.|.|.|.|.|.|.|.|.|.|.",
"|.|.|.|.|.|.|.|.|.|.|.|.|.|.|.|.|.|. X|.|.|.|.|.|.|.|.|.|.|.|.|.|.|.|.|.|.|.|.|. X}.W.|.|.|.|.|.|.|.|.|.|.|.|.|.|.|.|.|.|.|.|.|.",
"|.|.|.|.|.|.|.|.|.|.|.|.|.|.|.|.|.|.|.|.|.|.|.|.|.|.|.|.|.|.|.|.|. X|.|.|.|.|.|. XU.W. X|.|.|.|.|.|.|.|.|.|.|.|.|.|.|.|.|.|.|.|.",
"|.|.|.|.|.|.|.|.|. X|.|.|.|. X|.|.|.|.|.|.|.|.|.|.|.|.|. X|.|.|.|.|.|.|.|.|.|.|.|.c.[. X|.|.|.|.|.|.|.|.|.|.|.|. X|.|.|.|.|.|.|.",
"|.|.|.|.|.|.|.|.|.|.|.|. X X}.}.}.|.|.|.|.|.|.|.|.|.|.|.|.|.|.|.|.|.|.|.|.|.|.|.|.j.{.|.|.|.|.|.|.|.|.|.|.|.|.|.|.|.|.|.|.|. X|.",
"|.|. X|.|.|.|.|.|.|.|.|.J.- X o j.[. X|.|.|.|.|.|.|.|.|.|.|.|.|.|.|.|.|.|.|.|.|.}.B {. X|.|.|.|.|.|.|.|.|.|.|.|.|.|.|.|.|.|.|.|.",
"|.|.|.|.|.|.|.|.|.|. XU.- - j.U.{.|.|.|.|.|.|.|.|.|.|.|.|.|.|.|.|. X|.|. X|.|. X}.C [.}.}.|.|.|.|.|.|.|.|.|.|.|.|.|.|.|.|.|.|.|.",
"|.|.|.|.|.|.|.|.|.|. XW.}. X X|.|.|.|.|. X|.|.|. X|.}. X|.|.|.|.|.[.{.|.|.|.}.U.N . # b l.W.|.|.|.|.|.|.|. X|.|.|.|.|.|.|.|.|.|.",
"|.|.|.|.|.|.|. X|.|.|.l.{. X X|.|.|.|.|.|.|.|. XW.V c.}.|.|.|.|.T.k.Q.|.|. X[.l.B # J.!.}.|.|. X|.|.|.|.|.|.|.|.|.|.|.|.|.|.|.|.",
"|.|.|.|.|.|.|.|.|.|.|.b D.k.B U.|.|.|.|.|.|. X[.- J.l.l. X|.|.|.D.$ T. X|.|. X X}.V }.|.|.|.|.|.|.|.|. X|.|.|.|.|.|.|.|.|.|.|.|.",
"|.|.|.|.|.|.|.|.|.|. X- $ t.I.}.|.|.|.|.|.|. Xj.m }.X # {.}.|.|.}.V X N }.|.|.|.}.j.{.|.|.|.|.|.|.|.|.|.|.|.|.|.|. X|.|.|.|.|.|.",
"|.|.|.|.|.|.|.|.|. X Xm x. X X X X X|.|.|.|.|.- c.:     # k.!.|.|.|.U.  j. X|.|.|.l.{.|.|.|.|.|.|.|.|.|.|.|.|.|.|.|.|.|.|.|.|.|.",
"|.|. X|.|.|.|.|.|.|. Xl.J. X}.Q.T.W.{.|.|.|. XB   X U.[.!.}.|.|.|.|.}.o V  X|.|. Xx.Q. X|.|.|.|.|.|.|.|.|.|.|.|.|.|.|.|.|.|.|.|.",
"|.|.|.|.|.|.|.|.|.|. XU.J.J.m ; b l.T.|. X|.|.}.U.[. X X|. X|.|.|.}.j.: [. X|.|. XE.T. X|.|.|.|.|.|.|.|.|.|.|.|.|.|.|.|.|.|. X|.",
"|.|.|.|.|.|.|.|.|.|. X{.U.P.Q.}.|. X|.|.|.|.|.|. X X|.|.|.|.|.|.|.[.T.}. X|.|.|. X}.[. X|.|.|.|.|.|.|.|.|.|.|.|.|.|.|.|.|.|.|.|.",
"|.|.|.|.|.|.|.|.|.|.|.|. X X X|.|.|.|.|.|.|.|.|.|.|.|.|.|.|.|.|.|.|.|.|.|.|.|.|. X|. X|.|.|.|.|.|.|.|.|.|.|.|. X|.|.|.|.|.|.|.|.",
"|.|.|.|.|.|.|.|.|.|.|.|.|.|.|.|.|.|.|.|.|.|.|.|.|.|.|.|.|.|.|.|.|.|.|.|.|.|.|.|.|.|.|.|.|.|. X|.|.|.}. X|.|.|.|.|.|.|.|.|.|.|.|.",
"|.|.|.|.|.|.|.|.|.|.|.|.|.|.|.|.|.|.|.|.|.|.|.|.|.|.|.|.|.|.|.|.|.|.|.|.|.|.|.|.|.|.|.|.|.}.|.}.|.|. X X|.|.|.|.|.|.|.|.|.|.|.|.",
"|.|.|.|.|.|.|.|.|.|.|.|.|.|.|.|.|.|.|.|.|.|.|.|.|.|.|.|.|.|.|.|.|.|.|.|.|.|.|. XT.B.K.K.K.K.Y.K.K.Y.Y.Y.K.G.}.|.|.|.|. X|.|.|.|.",
"|.|.|.|.|.|.|.|. X|.|.|. X X|.|. X X|. X|. X X|.|. X X X|. X X|.|. X|.|.|.|.|. XL.'.@XoXoX+XoX#XoXoXoXoXoXB.}.|.|.|.|.|.|.|.|.|.",
"|.|.|.|.|.|.!.!.[.[.[.[.[.[.!.[.[.[.!.{.!.{.[.[.[.[.[.[.[.[.!.[.[.{.[.|. X|.|. XJ.^.].`.`.'.]._.XX'.XX_.XXV.{.|.|.|.|.|.|.|.|.|.",
"|.|.|.|. XW.N d d d d d d d d d d d d d d d d d d d d d d d d d d d x R.|.{.{.{.B.^.].].].].XX`..X`.].].`.V.!.}. X X|.|.|.|.|.|.",
"|.|.|.|. XE.p h ( j u @.@.G h ( c t ~ @.~ t T ( y Y E ! r 7 j 7 Z u p H.k.0.r.q.M w.a.a.s.a.< a.a.a.a.a.a.9.q.r.k.J.[.|. X X X|.",
"|. X|.|. XE.4 ` -.-.| #.;.' *.-.-. .O.2.' ..-.-.T & p.p.D e.p.F D D f n n '.%X%X%X#X%XXXN.d.* Z.#X#X#X%X%X%X%X@X^.b.y.u.G.!.|.|.",
"|.|.|.|. XE.p ` -.-.-.J e &.-.=.-.-.| q { -.-.X.F b.$X$X$X$X$X$X$X$X$Xf.> XX$X$X$X$X$X~.w.~.C.9.#X$X$X$X$X$X$X$X$X%X_.0.O k. X X",
"|.|.|.|. XE.4 ` -.-.[ o.@.] -.-.-.&.P @.) &.-.&.g w.`.`.'.`.`.`.`.`.`.0.- XX$X$X$X$X$XY.C.$X#Xa.@X$X$X$X$X$X$X%Xm., i.D.Q.|.|. X",
"|.|. X|. XE.p T -.{ o.7.7.@._ -.X.P ,.8.,.K %.-.T A R R w 0 v i w w $ f < XX$X$X$X$X$XZ.C.$X#Xa.#X$X$X$X$X$X$X%Xm., i.x.Q.|. X|.",
"|.|.|.|. XE.p e ^ o.5.8.7.7.#.' P <.8.8.8.,.^ ] @.7.7.7.3.E | ^ 3.E z (.d..X$X/.C.%X$X~.C.$X%Xa.#X$X$X$X$X$X$X$X$X%X.XC.M : J. X",
"|.|.|.|. XE.p H e ;.7.6.7.8.3.e Q 8.7.7.7.8.I r 5.7.7.7.8.$.q ,.8.E 6 m.a.XXOX0.d.b.%XZ.C.%XoXa.@X$X$X$X$X$X$X$X$X#X~.z.0.t.T. X",
"|.|.|.|. XE.p h &.' ;.8.8.3.U  .] @.7.7.8.@._ } ~ 4.7.7.,.)  .P 2.E k < * XX.X).$XoX$X_., , a.a.%X$X$X$X$X$X$X$X$X'.* n U.}. X X",
"|.|.|.|. XE.p ` -.&.' ;.3.P  .-.-._ @.6.@.] =.-.{ ~ 5.,.^ %.-.X.P H l , + XX$X$X$X$X$X+XC.< ~.'.$X$X$X$X$X$X$X$X$X$XoX~.a.r.x.[.",
"|.|.|.|. XE.p ` -.-.&.K H X.-.-.-.-.] H ] =.-.-.-.} L K &.-.-.-.%.0 l Z.d..X$X$X$X$X$XC.9.b.d.w.%X$X$X$X$X$X$X$X$X$X$X$X$X`.9.O ",
"|.|.|.|. XE.p ` -.-.%.P Y { -.-.-.*.] G ] =.-.=.-.} G K &.-.-.-.%.7 z (.d..X$X$X$X$X$XC.Z.$X#Xa.%X$X$X$X$X$X$X$X$X$X$X.XC.y.u.G.",
" X|.|.|. XE.4 ( -...P 2.5.Q { -.=.' @.7.@.] -.-.{ Q 5.,.P &.-.X.P H k q., XX$X$X$X$X$XC.~.$XoXa.%X$X$X$X$X$X$X$X$X.Xw.N x.!. X X",
"|.|.|.|. XE.p y { U 2.7.8.4.o.{ ] $.7.7.7.@.] } Q 5.7.7.:.^ ..K 1.E z = O XX$X$X$X$X$XC.~.$X+Xa.%X$X$X$X$X$X$X$X$X`.9.q.c.T.}. X",
"|.|.|.|. XE.p G q :.8.7.7.8.4.r ! 8.7.7.7.7.I Z 5.7.7.7.8.$.q ,.8.E 6 y.w.].$X$X$X$X$XC.Z.$X+Xa.%X$X$X$X$X$X$X$X$X$X%X^., O x. X",
"|.|.|.|. XE.p y } U 3.7.7.7.+.] ' ;.8.7.7.;.' ) @.7.7.8.2.U | o.6.E z (.d.].$X$X$X$X$XZ.9.a.a.w.%X$X$X$X$X$X$X$X`.N.y.i.c.T.}. X",
"|.|.|.|. XE.4 ( -...U 2.6.+.[ -.&.^ ;.8.;.P =.-.] ! :.>.Z ( { K G H 5 C.w.XX$X$X$X$X$X%X.XC.w.oX$X$X$X$X$X$X$XoX, + k.Q. X X X X",
"|.|.|.|. XE.p ` -.-...U U [ -.=.=.&.' o.^ &.-.=.T = v.g.g.g.g.g.s.s.s.= * XX$X$X$X$X$X$X$X%Xw.XX$X$X$X$X$X$X$X$X%X`.N.0.n D. X X",
"|. X|.|. XE.p ( -.-.=.K u %.-.-.=.-.` t { -.-.X.F b.$X$X$X$X$X%X$X$X$Xs.> XX$X$X$X$X$X$X$X$XZ.C.$X$X$X$X$X$X$X$X%X'.N.0.> G.|.|.",
"|.|.|.|. XE.p ` -.=.' ;.1.P %.-.-.[ +.4.o. .-.=.9 9.^./././././././.^.9.: f.n.n.n.n.n.n.n.N.d.= n.n.n.n.n.n.n.b.q.t.x.!.|. X|.|.",
"|.|.|.|. XE.p c ..J +.1.1.$.J { _ L ,.1.,.L ` { H A S S q 1 y @ A i @ h.T.J.J.L.u.m.Z.C.C.C.C.C.C.C.Z.C.Z.y.D.I.[. X X X|.|.|.|.",
"|.|.|.|. XE.p 3 3 2 8 8 8 8 2 2 1 8 8 8 8 2 2 2 2 a 9 9 3 2 3 2 s 5 l I. X X X XL.).`.OX`.XX].].XX`.XX`.XXV.}.|. X|.|. X|.|.|.|.",
"|.|.|.|. X}.H.H.H.H.F.F.H.H.H.H.H.F.F.F.F.F.F.F.H.F.F.F.S.H.H.H.H.H.H.{. X X|.|.P._.oXOXoXOXOXoXOXoXOXoXXXB.}.|.|.|.|.|.|.|.|.|.",
"|.|.|.|.|.|. X X X X X X X X X X X X X X X X X X X X X X X X X X X X X X|.|.|.|.W.B.K.K.K.K.K.K.K.K.K.K.K.L.|.|.|.|.|.|.|.|.|.|.",
"|.|. X|.|.|.|.|. X|. X|. X X X X|.|. X X X|. X|.|. X|.|. X X|.|.|.|.|. X|.|.|.|. X X|.|.|.|.|.|.|.|.|.|.|.|.|.|.|.|. X|.|.|.|.|.",
"|.|.|.|.|.|.|.|.|.|.|.|.|.|.|.|.|.|.|.|.|.|.|.|.|.|.|.|.|.|.|.|.|.|.|.|.|.|.|.|.|.|.|.|.|.|.|.|.|.|.|.|.|.|.|.|.|.|.|.|.|.|.|.|.",
"|.|.|.|.|.|.|.|.|.|.|.|.|.|.|.|.|.|.|.|.|.|.|.|.|.|.|.|.|.|.|.|.|.|.|.|.|.|.|.|.|.|.|.|.|.|.|.|.|.|.|.|.|.|.|.|.|.|.|.|.|.|.|.|.",
"|.|.|.|.|.|.|.|.|.|.|.|.|.|.|.|.|.|.|.|.|.|.|.|.|.|.|.|.|.|.|.|.|.|.|.|. X|.|.|.|.|.|.|.|.|.|.|.|.|.|.|.|.|.|.|.|.|.|.|.|.|.|.|.",
"|.|.|.|.|.|.|.|.|.|. X|.|.|.|.|.|.|.|.|.|. X|.|.|.|.|.|.|.|.|.|.|.|.|.|.|.|.|.|.|.|.|.|.|.|.|. X|.|.|.|.|.|.|.|.|.|.|.|.|.|.|.|.",
" X|.|.|.|.|.|.|.|.|.|.|.|.|.|.|.|.|.|.|.|.|.|.|.|.|.|.|.|.|.|.|.|.|.|.|.|.|.|.|.|.|.|.|.|.|.|.|.|.|.|.|.|. X|.|.|.|.|.|.|.|.|.|.",
"|.|.|.|.|.|.|.|.|.|.|.|.|.|.|.|.|.|.|.|.|.|.|.|.|.|.|.|.|.|.|. X|.|.|.|.|.|.|.|.|.|.|.|.|.|.|.|.|.|.|.|.|.|.|.|.|.|.|.|.|.|.|. X",
"|.|.|.|.|. X|.|.|.|.|.|.|.|.|.|.|.|.|.|.|.|.|.|.|.|.|.|.|.|.|.|.|.|.|.|.|.|.|.|.|. X|.|.|.|.|.|.|.|.|.|.|.|.|.|.|.|.|.|.|.|.|.|.",
"|.|.|.|.|.|.|.|.|.|.|.|.|.|.|.|.|.|.|.|.|.|.|.|.|. X|.|.|.|.|.|.|.|.|.|.|.|.|.|.|.|.|.|.|.|.|.|.|.|.|.|.|.|.|.|.|.|.|.|.|.|.|.|.",
"|.|.|.|.|.|.|.|.|.|.|.|.|.|.|.|.|.|.|. X|.|.|.|.|.|.|.|.|.|.|.|.|.|.|.|.|.|.|.|.|.|.|.|.|.|.|.|.|.|.|.|.|.|.|.|.|. X|.|.|.|.|.|.",
"|.|.|.|.|.|.|.|.|.|.|.|.|.|.|. X|.|.|.|.|.|.|.|.|.|.|.|.|.|.|.|.|.|.|.|. X|.|.|.|.|.|.|.|.|.|.|.|.|. X|.|.|.|.|.|.|.|.|.|.|.|.|."
};
