/* XPM */
static char *koto_west[] = {
/* columns rows colors chars-per-pixel */
"64 64 118 2 ",
"   c #1E221E",
".  c #2C342D",
"X  c #39453B",
"o  c #3C493D",
"O  c #3F4C40",
"+  c #4E4F4E",
"@  c #4E554F",
"#  c #565756",
"$  c #5B5C5B",
"%  c #536454",
"&  c #556957",
"*  c #576B59",
"=  c #5B6A5D",
"-  c #5D735F",
";  c #5F6E61",
":  c #5F7661",
">  c #636464",
",  c #646864",
"<  c #6B6C6B",
"1  c #637364",
"2  c #627A64",
"3  c #677468",
"4  c #6C746D",
"5  c #697D6B",
"6  c #6F7070",
"7  c #727472",
"8  c #747B75",
"9  c #7B7D7B",
"0  c #6D876F",
"q  c #6E8870",
"w  c #718373",
"e  c #738E76",
"r  c #7C827C",
"t  c #7B8B7C",
"y  c #749076",
"u  c #77947A",
"i  c #7B947E",
"p  c #7F8080",
"a  c #7F8C80",
"s  c #7F9481",
"d  c #7E9D81",
"f  c #848584",
"g  c #838B84",
"h  c #8B8E8C",
"j  c #829384",
"k  c #849B86",
"l  c #879488",
"z  c #8B948C",
"x  c #869D88",
"c  c #8B988D",
"v  c #8F9A90",
"b  c #929392",
"n  c #959A95",
"m  c #979898",
"M  c #9B9D9B",
"N  c #83A286",
"B  c #86A489",
"V  c #89A58C",
"C  c #86A88A",
"Z  c #8AAA8D",
"A  c #8CB08F",
"S  c #8EAD91",
"D  c #95A096",
"F  c #9CA09C",
"G  c #8DB090",
"H  c #92B495",
"J  c #94B997",
"K  c #95B798",
"L  c #97BC9A",
"P  c #98BD9C",
"I  c #9FA1A0",
"U  c #A3A4A3",
"Y  c #A5A9A6",
"T  c #A7ACA8",
"R  c #ABACAB",
"E  c #AFB0AF",
"W  c #B3B4B3",
"Q  c #B6B8B6",
"!  c #BBBBBB",
"~  c #9BC19E",
"^  c #9DC5A1",
"/  c #9FC8A3",
"(  c #A2CBA6",
")  c #A4CEA8",
"_  c #A7D2AB",
"`  c #A9D5AD",
"'  c #ABD8AF",
"]  c #BFC0BF",
"[  c #ADDBB2",
"{  c #B1DFB5",
"}  c #B2E1B6",
"|  c #B5E5B9",
" . c #B7E8BB",
".. c #B9EBBE",
"X. c #BFC1C0",
"o. c #BCEEC1",
"O. c #BDF0C2",
"+. c #C4C4C4",
"@. c #C7C8C7",
"#. c #CBCCCC",
"$. c #CFD0CF",
"%. c #D3D3D3",
"&. c #D7D8D7",
"*. c #DCDCDC",
"=. c #C1F5C6",
"-. c #C3F7C8",
";. c #C6FBCB",
":. c #C8FECD",
">. c #DFE0DF",
",. c #CBFFD0",
"<. c #E0DFE0",
"1. c #E2E2E2",
"2. c #ECECEC",
"3. c #F4F4F4",
"4. c #F8F7F7",
"5. c #F7F8F7",
"6. c #F8F7F8",
"7. c #FFFFFF",
/* pixels */
":.:.:.:.:.:.:.:.:.:.:.;.:.:.:.:.:.:.:.:.:.:.:.:.:.:.:.:.:.:.:.:.:.:.:.:.:.:.:.:.;.[ ;.:.:.:.:.:.:.:.:.:.:.:.:.:.:.:.:.:.:.:.:.:.",
":.:.:.:.:.:.;.:.:.:.:.:.:.:.:.:.:.:.:.:.:.:.:.:.:.:.:.:.:.:.:.:.:.:.:.:.:.:.:.:.| = [ :.:.,.:.:.:.:.:.:.;.:.:.:.:.:.:.:.:.:.:.;.",
":.:.:.:.:.:.:.:.:.:.:.:.:.:.:.:.:.:.:.:.:.;.:.:.:.:.:.;.:.:.:.:.:.:.:.:.:.` O.,.K 8 S :.;.` ;.:.:.:.:.:.:.:.:.:.:.:.:.:.:.:.:.:.",
":.:.:.:.:.:.:.:.:.:.:.:.:.:.:.:.;.:.:.:.:.:.:.:.:.:.:.:.:.:.:.:.:.} ) :.=.= P ;.a %.j O.[ # | ,.` ) :.:.:.:.:.:.:.:.:.:.:.:.:.:.",
":.:.:.:.:.:.:.:.:.:.:.:.;.:.:.:.:.:.:.:.:.:.:.:.:.:.:.:.:.:.:.:.,.B 1 :.' 7 k ` b 7.F ) K < P ,.e 5 :.:.:.:.:.:.:.;.:.:.:.:.:.:.",
":.:.:.:.:.:.:.:.:.:.:.:.:.:.:.:.:.:.:.:.:.:.:.:.:.:.:.:.:.:.:.:.-.t 8 } S W l i @.7.%.s j ! x o.r r  .:.:.:.:.:.:.:.:.:.:.:.;.:.",
":.:.:.:.:.:.:.;.:.:.;.:.:.:.:.:.:.:.:.:.:.:.:.:.:.:.:.;.:.:.:.:.[ n W S j 2.M , 3.7.3.7 r 3.l J F T ~ :.:.:.:.:.:.:.:.:.:.:.:.:.",
":.:.;.:.:.:.:.:.:.:.:.:.:.:.:.:.:.:.:.:.:.:.:.:.:.:.:.:.:.:.:.:.H Q <.3 z 7.*.! 7.7.7.+.+.7.Y = @.&.k :.:.:.:.:.:.:.:.:.:.:.:.:.",
":.:.:.:.:.:.:.:.:.:.:.:.:.:.:.:.:.:.:.:.=.[ [ =.,.:.:.:.:.:.:.-.s <.7.7 W 7.7.7.7.7.7.7.7.7.$.> 2.3.g o.:.:.:.:.:.:.:.:.:.:.:.:.",
":.:.:.:.:.:.:.:.:.:.:.:.:.:.:.;.:.:.:.` j F F j ` :.:.:.:.:.,.| z 6.7.&.2.7.7.7.7.7.7.7.7.7.3.%.7.7.F ) :.:.:.:.:.:.:.:.:.:.:.:.",
":.:.:.:.:.:.:.:.;.:.:.:.:.:.:.:.:.:.| l 1.7.7.1.j | :.:.:.:.:.` M 7.7.7.7.7.7.7.7.7.7.7.7.7.7.7.7.7.W P ,.:.:.:.:.:.:.;.:.:.:.:.",
";.:.:.:.:.;.:.:.:.:.:.:.:.:.:.:.:.,.Z @.7.7.7.7.] H ,.:.:.:.,.` F 7.7.7.7.7.7.7.7.7.7.7.7.7.7.7.7.7.W L ,.:.:.:.:.:.:.:.:.;.:.:.",
":.:.:.:.:.:.;.:.:.:.:.:.:.:.:.:.:.-.j 2.7.7.7.7.&.B :.:.:.:.,.` F 7.7.7.7.7.7.7.7.7.7.7.7.7.7.7.7.7.W P ,.:.:.:.:.:.:.:.:.:.:.:.",
":.:.:.:.:.:.:.:.;.:.:.:.:.:.:.:.:.} n 7.7.7.7.7.@.H ,.:.:.:.:.` F 7.7.7.7.7.7.7.7.7.7.7.7.7.7.7.7.7.W L ,.:.:.:.:.:.:.:.:.:.:.:.",
":.:.:.:.:.:.:.:.:.:.:.:.:.:.;.:.:.L Q 7.7.7.7.7.W ^ ,.:.:.:.,.` F 7.7.7.7.7.7.7.7.7.7.7.7.7.7.7.7.7.W P ,.:.:.:.:.:.:.:.;.:.:.:.",
":.:.:.:.:.:.:.:.:.:.:.:.:.:.:.:.:.x 1.7.7.7.7.7.Y ` ,.:.:.:.:.` M 7.7.7.7.7.7.7.7.7.7.7.7.7.7.7.7.7.W P :.:.:.:.;.:.:.:.:.:.:.:.",
":.;.:.:.:.:.:.:.:.:.:.:.:.:.:.:.o.z 5.7.7.7.7.7.D } :.:.:.:.:.` M 7.7.7.7.7.7.7.7.7.7.7.7.7.7.7.7.7.W P ,.:.:.:.:.:.:.:.:.:.:.:.",
":.:.:.:.:.;.:.:.:.:.:.:.:.:.:.,.) Y 7.7.7.7.7.6.z O.:.:.:.:.,.` F &.E E E W E #.2.! ! ! ! Q +.3.7.2.h L ,.:.:.:.:.:.:.:.:.:.:.:.",
":.:.:.:.:.:.:.:.:.;.:.:.:.:.;.,.H @.7.7.7.7.7.5.c o.:.:.:.:.:.' 9 r R +.+.+.W h +.g Q Q Q Q 9 +.R b 9 P ,.:.:.:.:.:.:.:.:.:.:.:.",
":.:.:.:.:.:.:.:.:.:.:.:.:.:.:.:.Z %.7.7.7.7.7.7.F [ ,.:.:.:.:.` 8 7 *.7.7.7.2.f U E 7.7.7.7.b 9 +.3.W P :.:.:.:.:.:.:.:.:.:.:.:.",
":.:.;.:.:.:.;.:.:.:.:.:.:.:.:.,.V *.7.7.7.7.7.7.Q ~ :.:.:.:.:.` M m %.3.3.3.*.6 9 Y 7.4.5.5.m &.7.7.W P ,.:.:.:.:.:.:.:.;.:.:.:.",
":.:.:.:.:.:.:.:.:.:.:.:.:.:.:.,.H @.7.7.7.7.7.7.$.S ,.:.:.:.,.` F W f b b h h U $.p b b b b f 1.7.7.W P ,.:.:.:.:.:.:.:.:.:.:.:.",
":.:.:.:.:.:.:.:.:.:.:.:.:.:.:.,./ E 7.7.7.7.7.7.1.x :.:.:.:.,.` M 7.3.3.3.3.6.5.7.2.2.2.2.2.3.7.7.7.W L ,.:.:.:.:.:.;.:.:.:.:.:.",
":.:.:.:.:.:.:.:.:.:.:.:.:.:.:.:.} D 7.7.7.7.7.7.3.c O.:.:.:.:.` F 7.7.7.7.7.&.6.7.7.7.7.7.7.7.7.7.7.W P ,.:.:.:.:.:.:.:.:.:.:.:.",
":.:.:.:.:.:.:.:.:.:.:.:.:.:.:.:.O.c 5.7.7.7.7.7.7.n | :.:.:.:.` F 7.7.7.7.$.m 5.7.7.7.7.7.7.7.7.7.7.W L ,.:.:.:.:.:.:.:.:.:.:.;.",
":.:.;.:.:.:.:.:.:.:.:.:.:.:.:.:.-.x 2.7.7.7.7.7.7.T ) ,.:.:.,.` F 7.7.7.7.b E 7.7.7.7.7.7.7.7.7.7.7.W P ,.:.:.:.;.:.:.:.:.:.:.:.",
":.:.:.:.:.:.:.:.:.:.:.:.:.:.,.:.:.B #.7.7.7.7.7.7.+.J ,.:.:.,.` F 7.7.7.7.*.m #.7.7.7.7.7.7.7.7.7.7.W P ,.:.:.:.:.:.:.:.:.:.:.:.",
":.:.:.:.:.:.:.:.:.:.:.:.-. .) H x t $.7.7.7.7.7.7.*.V ,.,.:.,.` M 7.7.7.7.7.7.5.7.7.7.7.7.7.7.7.7.7.W L ,.:.:.:.:.:.:.:.:.:.:.:.",
":.:.:.:.:.:.:.:.:.=.~ Z k v T @.1.6.7.7.7.7.7.7.7.2.4 Z ) ..:.[ r W W W W W W W E W W E W W W W W Q g P ,.:.:.:.:.:.:.:.:.:.:.:.",
":.:.:.:.:.:.:.:.:.V U &.2.7.7.7.7.7.*.<.7.7.7.7.7.5.b ! T z x G N H P i f Q M $ > W ! 9 + m Q U 3 C Z  .:.:.:.:.:.;.:.:.:.:.;.:.",
":.:.:.:.:.:.:.:.( M 7.7.7.7.7.7.2.U m h 2.7.7.7.7.7.U *.7.5.1.! F x S d W 3.m $.M <.6.m +.z 2.>.6 n g ^ :.:.:.:.:.:.:.:.:.:.:.:.",
":.:.;.:.:.:.:...j 1.7.7.7.7.7.2.m @.7.@.U 7.7.7.7.7.Q @.7.7.7.7.7.2.&.h W #.9 #.W ! *.m ! 9 $.1.M 7.+.H :.:.:.:.:.:.:.:.:.:.:.:.",
":.:.:.:.:.:.:.V +.7.7.7.7.7.6.I +.7.7.1.M 7.7.7.7.7.#.R 7.7.7.7.7.7.7.+.W 7.1.9 R M R Y 6 &.7.*.M 7.@.K ,.:.:.:.:.:.:.:.:.:.:.:.",
":.:.:.:.:.:.} b 5.7.7.5.7.6.R W 7.7.7.*.R 7.7.7.7.7.1.U 7.7.7.7.7.7.7.m E 7.2.f 1.b 9 ] b 3.7.*.F 7.@.K ,.:.:.:.:.:.:.:.:.:.:.:.",
":.:.:.:.:.,.P Q 7.@.U m U m T 7.7.7.7.#.W 7.7.7.7.7.3.m 3.7.7.7.7.7.X.; W 7.5.! U m 7 h <.7.7.<.M 7.@.K ,.:.:.:.:.:.:.;.:.:.:.:.",
":.:.:.:.:.:.B *.7.&.*.2.1.&.3.7.7.7.7.M R 7.7.7.7.7.7.F 1.7.7.7.7.&.j J W 7.7.7.#.9 # $.7.7.7.*.M 7.@.K :.:.:.:.:.:.:.:.:.:.:.:.",
":.:.:.:.:.o.z 5.7.7.7.7.7.7.7.7.7.3.R h h R 7.7.7.7.7.R %.7.7.7.2.j | ^ W 7.7.7.7.*.f 2.7.7.7.*.U 7.@.K :.:.:.:.:.:.:.:.:.:.;.:.",
":.:.:.;.:./ T 7.7.7.7.7.7.7.7.7.2.m Q 7.1.F 7.7.7.7.7.@.Q 7.7.6.m ( ,.^ W 7.7.7.7.7.m 1.7.7.7.1.M 7.@.K :.:.:.:.:.:.:.:.:.:.:.:.",
":.:.:.:.:.) M 7.7.7.7.7.7.7.7.*.b #.7.7.&.U 7.7.7.7.7.*.U 7.7.T G :.,.^ W 7.7.7.5.3.M 1.7.7.7.*.U 7.@.K ,.:.:.:.;.:.:.:.:.:.:.:.",
":.:.:.:.:.;.Z Q 7.7.7.7.7.5.@.m *.7.7.3.m &.7.7.7.7.7.2.m 7.@.k -.:.,.^ W 7.7.7.*.@.f 1.7.7.7.*.U 7.+.K ,.:.:.:.:.:.:.:.:.:.:.:.",
":.:.:.:.:.:.O.s U W R U m m M 2.7.7.5.m h *.7.7.7.7.7.5.m #.j o.,.:.,.^ W 7.7.7.*.+.g 1.7.7.7.>.< m 9 ~ :.:.:.:.:.:.:.;.:.:.:.:.",
":.:.:.:.:.:.;.s W %.&.1.2.3.5.7.7.7.W h R f 2.7.7.7.7.2.h g [ ,.:.:.,.^ W 7.7.7.1.+.h 1.7.7.7.1.4 v K =.:.:.;.:.:.:.:.:.:.:.:.:.",
":.:.:.:.:.:.) F 7.7.7.7.7.7.7.7.7.] U 5.7.M 1.7.7.7.7.#.@ / :.:.:.:.:.^ W 7.7.7.&.@.p %.#.@.#.%.B =.:.:.:.:.:.:.:.:.:.:.:.:.:.:.",
":.:.;.:.:.;.i *.7.7.7.7.7.7.7.7.#.m 3.7.7.U *.7.7.7.7.M i :.:.:.:.:.,.^ W 7.7.7.6.2.m $.@.*.*.&.x :.:.:.:.:.:.:.:.:.:.:.:.:.:.:.",
":.:.:.:.:.:.Z R 5.7.7.7.7.7.7.*.b 2.7.7.*.r 2.7.7.7.3.l o.:.:.:.:.:.,.) r b m M b n 4 f M M z h C :.:.:.:.:.:.:.:.:.:.:.:.:.:.:.",
":.:.:.:.:.:.-.Z U 3.2.*.@.W U b *.7.7.<.b f %.7.7.7.*.B :.:.:.:.:.:.:.;. .C Y 2.h ^ } e %.%.r { =.:.:.:.:.:.:.:.:.:.:.:.;.:.:.:.",
":.:.:.:.:.:.:.:.k r M U W #.*.3.7.7.1.z 1.R W 1.%.@.b ^ :.:.:.:.:.:.[ x Z w f R 4 [ -.w m M 4 B B K ;.:.:.:.:.:.:.:.;.:.:.:.:.:.",
":.:.:.:.:.:.:.,.Z #.7.7.7.7.7.7.7.1.b &.! 8 t V Z J / -.:.:.:.:.:.,.H Y *.*.*.*.m ( =.g %.*.*.*.$.t ;.:.:.;.:.:.:.:.:.:.:.:.:.:.",
":.:.:.:.:.:.:.:.C n >.2.2.*.&.%.+.b W n S O.;.:.:.,.,.:.:.:.:.:.:.,.H m +.] ! +.h ( -.r W +.! +.W t ;.:.:.:.:.:.:.:.:.:.:.:.:.:.",
":.:.:.:.:.:.:.:.-.) s 4 M U Y W Y z j [ :.:.:.:.:.:.:.:.:.:.:.:.:.:. .P J P P L L O.:.) L L L L L _ :.:.:.:.:.:.:.:.:.:.:.:.:.:.",
":.:.:.:.:.:.:.;.:.,. .r 2.5.7.$.z L -.:.:.:.:.:.:.:.:.:.:.:.:.:.:.:.:.,.,.,.:.,.:.:.:.:.,.,.:.,.,.:.:.:.:.:.:.:.:.;.:.:.:.:.:.;.",
";.:.:.:.:.:.:.:.:.:.=.Z k c z x | :.:.:.:.:.:.:.:.:.:.:.:.:.:.:.:.:.:.:.:.:.:.:.:.:.:.:.:.:.:.:.:.:.:.:.;.:.:.:.:.:.:.:.:.:.:.:.",
":.:.:.:.;.:.:.:.:.:.:.,.-.O.| -.:.:.:.:.:.:.:.:.:.:.:.:.:.:.:.:.:.:.:.:.:.:.:.:.:.:.:.:.:.:.:.:.:.:.:.:.:.:.:.:.:.:.:.:.:.:.:.:.",
":.:.:.:.:.:.:.:.:.:.:.:.:.:.:.:.:.:.:.:.:.:.:.:.:.:.:.:.:.:.:.:.:.:.:.:.:.:.:.:.:.:.=.-.:.:.:.:.:.:.:.:.;.:.:.:.:.:.:.:.:.:.:.:.",
":.:.:.:.:.:.:.:.:.:.:.:.:.:.:.:.:.:.:.:.:.:.:.:.:.:.:.:.:.:.:.:.:.:.:.:.:.:.:.:.:.=._ :.:.:.:.:.:.:.:.:.:.:.:.:.:.;.:.:.:.:.:.:.",
":.:.:.:.:.:.:.:.:.:.:.:.:.:.-.:.:.:.:.:.:.-.:.:.:.:.:.:.:.:.:.:.:.-.{ o.:.:.:.;.o.( J =.;.:.:.:.:.:.:.:.:.:.:.:.:.:.:.:.:.:.;.:.",
":.:.:.:.:.:.:.:.:.:.:.:.:.:. .o.:.:.,.:.:.) -.:.:.:.;.A i =.:.:.,.^ L -.:.:.:.o.Z & % N } ;.:.:.:.;.:.:.:.:.:.:.:.:.;.:.:.:.:.:.",
":.:.:.:.:.:.:.:.:.:.:.:.:.:.| _ :.o.~ -.o.C :.:.:.:.L   X ..:.:.:.[ 0 _ :.:.:.:.:.L L -.;.:.:.:.:.:.:.:.:.;.:.:.:.:.:.:.:.:.:.:.",
":.:.:.:.:.:.:.:.:.:.:.:.:.:.o.Z :.~ . [ ) y :.:.:.:.* % } :.:.:.:.,.` * [ :.:.:.,.` C :.:.:.:.:.:.:.:.:.:.:.:.:.:.:.:.:.:.:.:.:.",
":.:.:.;.:.:.:.:.:.:.:.:.:.:.:.N | u o - 2 N ,.:.:.:.y o y Z { :.:.:.{ - { ,.:.:.:.-.C L [ O.:.:.:.:.:.:.:.:.:.:.:.:.:.:.:.:.:.:.",
":.:.:.:.:.:.:.:.:.:.:.:.:.:.:.^ q * ) 1 &  .:.:.:.:.=.J S [ -.:.:.[ d _ :.:.:.:.:.:.=._ ` o.;.:.:.:.:.:.:.:.:.:.:.:.:.:.;.:.:.:.",
":.;.:.:.:.:.:.:.:.:.:.:.:.:.:.-.N C :.;.;.:.:.:.:.:.:.:.,.:.:.:.:. .;.:.:.:.:.:.:.:.:.,.:.:.:.:.:.:.:.:.:.:.:.:.:.:.:.;.:.:.:.:.",
":.:.:.:.:.:.:.:.:.:.:.:.:.:.:.:.:.:.:.:.:.;.:.:.:.:.:.:.:.:.:.:.:.:.:.:.:.:.:.:.:.:.:.:.:.:.:.:.:.:.:.:.;.:.:.:.:.:.:.:.:.:.:.:.",
":.:.:.:.:.:.:.:.:.:.:.:.:.:.:.:.:.:.:.:.:.:.:.:.:.:.:.:.:.:.:.:.:.:.:.:.:.:.:.:.:.:.:.:.:.:.:.:.:.:.;.:.:.:.:.:.:.:.:.:.:.:.:.:."
};
