/* XPM */
static char *koto_north[] = {
/* columns rows colors chars-per-pixel */
"64 64 206 2 ",
"   c #111516",
".  c #1C2122",
"X  c #2A3233",
"o  c #32345F",
"O  c #1A1C7A",
"+  c #3C3D73",
"@  c #303469",
"#  c #3C4748",
"$  c #4B5657",
"%  c #485657",
"&  c #545C5D",
"*  c #5B5C5D",
"=  c #44456E",
"-  c #5A5B7A",
";  c #4A4F76",
":  c #5D6B6C",
">  c #596164",
",  c #5D6F70",
"<  c #5E7071",
"1  c #636B6D",
"2  c #6A6A6B",
"3  c #69697F",
"4  c #67677F",
"5  c #637475",
"6  c #677B7C",
"7  c #6E7172",
"8  c #7A7C7C",
"9  c #737677",
"0  c #8B3F72",
"q  c #883669",
"w  c #A2567A",
"e  c #E17E77",
"r  c #E1807A",
"t  c #050584",
"y  c #060689",
"u  c #0B0B89",
"i  c #040393",
"p  c #03029C",
"a  c #15178E",
"s  c #201F9A",
"d  c #1D2294",
"f  c #232891",
"g  c #3E3D99",
"h  c #0100A5",
"j  c #0809A3",
"k  c #1818A8",
"l  c #3D39AC",
"z  c #2424B1",
"x  c #47488A",
"c  c #46469C",
"v  c #5A6487",
"b  c #6A788D",
"n  c #7B7B83",
"m  c #607090",
"M  c #697490",
"N  c #4949A8",
"B  c #4D57A6",
"V  c #4444B4",
"C  c #5D5CBC",
"Z  c #5A4CA9",
"A  c #5A69AA",
"S  c #5D70B8",
"D  c #5C6EB4",
"F  c #676CB3",
"G  c #6A76B7",
"H  c #787AB8",
"J  c #6F73A3",
"K  c #6A6AC7",
"L  c #7B7BC3",
"P  c #AA749A",
"I  c #6E8485",
"U  c #7C8484",
"Y  c #7D898A",
"T  c #77888C",
"R  c #7C8B93",
"E  c #768899",
"W  c #7E9798",
"Q  c #7D9495",
"!  c #7E80A6",
"~  c #6B80B6",
"^  c #7484BB",
"/  c #7C88C2",
"(  c #7C93C7",
")  c #838485",
"_  c #838B8C",
"`  c #8A8B8B",
"'  c #838488",
"]  c #828E91",
"[  c #898F90",
"{  c #859293",
"}  c #8D9293",
"|  c #849698",
" . c #869A9B",
".. c #889B9B",
"X. c #949595",
"o. c #9B9B9C",
"O. c #939898",
"+. c #8687AD",
"@. c #869FA1",
"#. c #8D8EB4",
"$. c #8BA4A5",
"%. c #8EA9AA",
"&. c #87A3A4",
"*. c #9EA1A2",
"=. c #91AAAB",
"-. c #90A7A8",
";. c #94AFB0",
":. c #96B1B2",
">. c #98B5B6",
",. c #9BB7B8",
"<. c #9DBBBC",
"1. c #97B0BD",
"2. c #A3A3A4",
"3. c #A5A7A8",
"4. c #ACACAC",
"5. c #AEAFB0",
"6. c #A4A4BD",
"7. c #AFB0B1",
"8. c #A1BDBE",
"9. c #B3B4B4",
"0. c #BCBCBC",
"q. c #BAB7B6",
"w. c #E79A95",
"e. c #D5A8B6",
"r. c #EEB2AE",
"t. c #E8AFAD",
"y. c #BFC0BF",
"u. c #8E8FC3",
"i. c #8E90C6",
"p. c #9D9DC4",
"a. c #9596C9",
"s. c #A09FCE",
"d. c #89A4CB",
"f. c #9FBEC0",
"g. c #92B0CB",
"h. c #8BA7D0",
"j. c #91AED5",
"k. c #99B8D7",
"l. c #A1BFC0",
"z. c #BFBAC0",
"x. c #A6A7D1",
"c. c #A5A4DA",
"v. c #ABACD9",
"b. c #B8B8D9",
"n. c #BCBCE5",
"m. c #C5BBC7",
"M. c #D3BAD5",
"N. c #CBA8CE",
"B. c #F2A4FA",
"V. c #F3AAFB",
"C. c #F6B7FC",
"Z. c #9FC0D7",
"A. c #A2C2C3",
"S. c #AACBCC",
"D. c #A6C8C9",
"F. c #ADCFD0",
"G. c #A2C3D8",
"H. c #AED2D3",
"J. c #B1D5D6",
"K. c #B5DADB",
"L. c #B8DDDF",
"P. c #B3D7D8",
"I. c #B6DCE8",
"U. c #A5C8E2",
"Y. c #BDE3E4",
"T. c #BEE6EB",
"R. c #C3C3C4",
"E. c #CDCDCD",
"W. c #D0CFCF",
"Q. c #C3C3DC",
"!. c #C9C9D3",
"~. c #D2CBD3",
"^. c #CFD1D0",
"/. c #D4D4D4",
"(. c #D8D7D7",
"). c #DCDCDD",
"_. c #D8D8D7",
"`. c #F0C4C2",
"'. c #E0E0DE",
"]. c #DAD9E8",
"[. c #D0D0EA",
"{. c #F6C7FB",
"}. c #FADDFD",
"|. c #F5D8F8",
" X c #E1D6E6",
".X c #C0E7E8",
"XX c #C3EAEB",
"oX c #C4EDF3",
"OX c #C7F0F1",
"+X c #CAF4F5",
"@X c #CCF7F8",
"#X c #CFFAFB",
"$X c #C7F1F8",
"%X c #D1FDFE",
"&X c #E2E2E2",
"*X c #EDEDED",
"=X c #E7E7E8",
"-X c #E8E8F3",
";X c #FBE5FD",
":X c #F5F5F5",
">X c #FBF4F4",
",X c #F8F8F7",
"<X c #FBF5FC",
"1X c #FFFFFF",
"2X c #F7F4F8",
"3X c #FAE7E6",
/* pixels */
"%X%X%X%X%X%X%X%X%X%X%X%X%X%X%X%X%X%X%X%X%X%X%X%X%X%X%X%X%X%X%X%X%X%X%X%X%X%X%X%X%X%X%X%X%X%X%X%X%X%X%X%X%X%X%X%X%X%X%X%X%X%X#X%X",
"%X%X%X%X%X%X%X%X%X%X%X%X%X%X%X%X%X#X%X%X%X%X%X%X%X%X%X%X%X%X%X%X%X%X%X%X%X%X%X%X%X%X%X%X%X%X%X#X%X%X%X%X%X%X%X%X%X%X%X%X%X%X%X%X",
"%X%X%X%X%X%X%X%X%X%X%X%X%X%X%X%X%X%X%X%X%X%X%X%X%X%X%X%X%X%X%X%X%X%X%X%X%X%X%X%X.X#X%X%X%X%X%X%X%X%X%X%X%X#X%X%X%X%X%X%X%X%X%X%X",
"%X%X%X%X%X%X%X%X%X#X%X%X%X%X%X%X%X%X%X%X%X%X%X%X%X#X+X%X%X%X%X#X%X%X%X%X#XL.#X+X$.+X%X%X%X%X%X%X%X%X%X%X%X%X%X%X%X%X%X%X%X%X%X%X",
"%X%X%X%X%X%X%X%X%X%X%X%X%X%X%X%X%X%X%X%X#X%XA.>.%XP.J.#X#X@X#X%X#X%XOX@XOXW #XD.6 %X%X%X%X%X%X%X%X%X%X%X%X%X%X%X%X%X%X%X%X%X%X%X",
"%X%X%X%X%X%X%X%X%X%X%X%X%X#X%X%X%X%X%X%X%X#X< # #X$.H.#XK.%.&.#X+X&.%.L.$.> +XI I %X%X%X%X%X%X%X%X%X%X%X%X%X%X%X%X%X%X%X%X%X%X%X",
"%X%X%X%X%X%X%X%X%X%X%X%X%X%X%X%X%X%X%X%X%XOXT # K.< Y.@XY.OX6 oXS.: +XT.>., XX# Q #X%X%X%X%X%X%X%X%X%X%X%X%X%X%X%X%X%X%X%X%X%X%X",
"%X%X%X%X%X%X%X#X%X%X%X%X%X%X%X%X%X%X%X%X%XY.>.> T & OXY.>.J., #X&.6 %X#XOXQ F.  . $.%X%X%X#X%X%X%X%X%X#X%X%X%X%X%X%X#X%X%X%X%X%X",
"%X%X%X%X%X%X%X%X#X%X%X%X%X%X%X%X%X%X%X%X%XP.P.| . , %XOXI , | S.L.H.%X%X#XS.%.  . % Y.A.S.#X#X%X%X%X%X%X%X%X%X%X%X%X%X%X%X%X%X%X",
"%X%X%X%X%X#X%X%X%X%X%X%X%X%X%X%X%X%X%X%X%XL.OXJ.X 8.%X%XH.%.,.& T.%X%X%X%X#XH.W H.% % W OX%X%X%X%X%X%X#X%X%X%X%X%X%X#X%X%X%X%X%X",
"%X%X%X%X%X%X%X%X%X%X%X%X%X%X%X%X%X%X%X%X%X+X%X%XXX%X+X8.#X%X| ) ,.%XOXA.#X#X#X#X%XXXT.#X%X%X%X%X%X%X%X%X%X%X%X%X%X%X%X%X%X%X%X%X",
"%X%X%X%X%X%X%X%X%X%X%X%X%X%X%X%X%X%X%X%X%X%X%X>..X%XS.$ Y.Y.} _._ %XD.& T.#XD.y.%X%X%X#X%X%X%X%X%X%X%X%X%X%X%X%X%X%X%X%X%X%X%X%X",
"%X%X%X#X%X%X%X%X%X%X%X%X#X%X%X%X%X%X%X%X%X%XOX& =.%X=.9 <.>.9.1X} P.&.9 A.%XI 5 %X%X%X%X%X%X%X%X%X%X%X%X%X%X%X%X%X%X%X%X%X%X%X%X",
"%X%X%X%X%X%X%X%X%X%X%X%X%X%X%X%X%X%X%X%X%X%XS.8 { OX` R.Y Y &X1XS. .Q e. .XXU U Y.%X%X%X%X%X%X%X%X%X%X%X%X%X%X%X%X%X%X%X%X%X%X%X",
"%X%X%X%X%X%X%X%X#X%X%X%X%X%X%X%X%X%X%X%X%X%X$.R.} <.O.,X9 ` 1X1X3X1 X.:X] >.*.5.>.%X%X%X%X%X%X%X%X%X%X%X%X#X%X%X%X%X%X%X%X%X%X%X",
"%X%X%X%X%X%X%X%X%X%X%X%X%X%X%X%X%X%X%X%X%X+X_ *X7.: 0.1XR./.1X1X1Xq.W.1X*.: E.'.{ #X%X%X%X%X%X%X%X%X%X%X%X%X%X%X%X%X%X%X%X%X%X#X",
"%X%X%X%X%X#X%X%X%X%X%X%X%X%X%X%X%X%X%X%X%XJ.O.1X_.* =X1X1X1X1X1X1X1X1X1XR.1 *X,X` .X%X%X%X%X%X%X#X%X%X%X#X%X%X%X%X%X%X%X%X%X%X%X",
"%X%X%X%X%X%X%X%X%X%X%X%X%X%X%X%X%X%X%X%X%X=.0.1X,XE.,X1X1X1X1X1X1X1X1X1X*XE.1X1X3.A.%X%X%X%X%X%X%X%X%X%X%X%X%X%X%X%X%X%X%X%X%X#X",
"%X%X%X%X%X%X%X%X%X%X%X%X%X%X#X%X%X%X%X%X%X .(.1X1X1X1X1X1X1X1X1X1X1X1X1X1X1X1X1X0.:.%X%X%X%X%X%X%X%X%X%X%X%X%X%X%X%X%X%X%X%X%X%X",
"%X%X%X%X%X%X%X%X%X%X%X%X%X%X%X%X%X%X%X%X%X ._.1X1X1X1X1X1X1X1X1X1X1X1X1X1X1X1X1X0.:.%X%X%X%X%X%X%X%X%X%X%X%X%X%X%X%X%X%X%X%X%X%X",
"%X%X%X%X%X%X%X%X#X%X%X%X%X%X%X%X%X%X%X%X%X .(.1X1X1X1X1X1X1X1X1X1X1X1X1X1X1X1X1X0.:.%X%X%X#X%X%X%X%X%X%X%X%X%X%X%X%X%X%X%X%X%X%X",
"%X%X%X%X%X%X%X%X%X%X%X%X%X%X%X%X%X%X%X%X%X.._.1X1X1X1X1X1X1X1X1X1X1X1X1X1X1X1X1X0.:.%X%X%X%X%X%X%X%X#X%X%X%X%X%X%X%X%X%X%X%X%X%X",
"%X%X%X%X%X%X%X%X%X%X%X%X%X%X%X%X%X%X%X%X%X .(.1X1X1X1X1X1X1X1X1X1X1X1X1X1X1X1X1Xe.:.%X%X%X%X%X%X%X%X%X%X%X%X%X%X%X%X%X#X%X%X%X%X",
"%X%X#X%X%X%X%X%X%X%X%X%X%X%X%X%X%X%X%X%X%X ._.1X1X1X1X1X1X1X1X1X1X1X1X1X1X1X1X1XS.:.%X%X%X%X%X%X%X%X%X%X%X%X%X%X%X%X%X%X%X%X%X%X",
"%X%X%X%X%X%X%X%X%X%X%X#X%X%X%X#X%X%X%X%X%X ._.1X1X1X1X1X1X1X1X1X1X1X1X1X1X1X1X1Xe.:.#X#X%X#X%X%X%X%X%X%X%X%X%X%X%X%X%X%X%X%X%X%X",
"%X%X%X%X%X%X%X%X%X%X%X%X%X%X%X%X%X%X%X%X%X ./.'./.^./././.*X:X).).).).).=X,X1X1X4.:.#X#X%X%X%X%X%X#X%X%X%X%X%X%X%X%X%X%X#X%X%X%X",
"%X#X%X%X%X%X%X%X%X%X%X%X%X%X%X%X%X%X%X%X%X| 4.8 o.o.o.2.) 4.9.8 o.O.X.O.8 './.O.2 :.%X%X%X%X%X%X%X%X%X%X%X%X%X%X%X%X%X%X%X%X%X%X",
"%X%X%X%X%X%X%X%X%X%X%X%X%X%X%X%X%X%X%X%X%XR 2 ) 1X1X1X1XE.2.2.E.1X1X1X1X` 8 o./.q.>.%X%X%X%X%X%X%X%X%X%X%X%X%X%X%X%X%X%X%X%X%X%X",
"%X%X%X%X%X%X%X%X%X%X%X%X%X%X%X%X%X%X%X%X%X..q.X.1X1X1X1XE.2 2 E.1X1X1X1X` E.1X1X0.:.%X%X%X%X%X%X%X%X%X%X%X%X#X%X%X%X%X%X%X%X%X%X",
"%X%X%X%X%X%X%X%X%X%X%X%X%X#X%X%X%X%X%X%X%X..m.n 2.3.2.3.` *.2.` 5.5.4.4.8 &X1X1X0.:.%X%X%X%X%X#X%X%X%X%X%X%X%X%X%X%X%X%X%X%X%X%X",
"%X%X%X%X%X%X%X%X%X%X%X%X%X%X%X%X%X%X%X%X%X ./.~.N.R.E.E.E.*X=XR.R.R.R.m.m.:X1X1X0.:.%X%X%X%X%X%X%X%X%X%X%X%X%X%X%X%X%X%X#X%X%X%X",
"%X%X%X%X%X%X#X%X%X%X%X%X%X%X%X%X%X%X%X%X%X .M.C.V.C.<X1X2X1X1X1X1X1X;XC.B.C.<X1X0.:.%X%X%X%X%X%X%X%X%X%X%X%X%X%X%X%X%X%X%X%X%X%X",
"%X%X%X%X%X%X%X#X%X%X%X%X%X%X%X%X%X%X%X%X%X..N.B.B.B.;X^.4.1X1X1X1X1X{.B.B.B.;X1Xy.;.#X#X#X#X%X%X%X%X%X%X%X%X%X%X%X%X%X%X%X%X%X%X",
"%X%X%X%X%X%X%X%X%X%X%X%X#X%X%X%X%X%X%X%X%X..M.V.B.V.|.) (.1X1X1X1X1X|.B.B.V.;X1Xy.:.#X#X#X%X%X%X%X%X%X%X%X%X%X%X%X%X%X%X%X%X%X%X",
"%X%X%X%X%X%X%X%X%X%X%X%X%X%X%X%X%X%X%X%X%X../.}.{.;X:X` 2.:X1X1X1X1X1X{.{.}.1X1Xy.:.%X%X%X%X%X%X%X%X%X%X%X%X%X%X%X%X%X%X%X%X%X%X",
"%X%X%X%X%X%X%X%X%X%X%X%X%X%X%X%X%X%X%X%X%X| (.1X1X1X1X:XR.=X1X1X1X1X1X1X1X1X1X1Xe.>.%X%X%X%X%X%X%X%X%X%X%X%X%X%X%X%X%X#X%X%X%X%X",
"%X%X#X%X%X%X%X%X%X%X%X%X%X%X%X%X%X%X%X%X%X .W.,X:X,X,X,X,X,X:X,X2X2X,X,X2X2X2X,X9.;.%X%X%X%X%X%X#X%X%X%X%X%X%X%X%X%X%X%X%X%X%X%X",
"%X%X%X%X%X%X%X%X%X%X#X%X%X%X%X%X%X%X%X%X%X%.U } [ 9 8 3 4 v ` ) ` ' - - 3 8 8 { 6 f.%X%X%X%X%X%X%X%X%X%X%X%X#X%X%X%X%X%X%X%X#X%X",
"%X%X%X%X%X%X%X%X%X%X%X%X%X%X%X%X%X%X%X%X%X@Xj.a.k.U 6.N p k Q.*X*XL p p N 6.v G A / #X%X%X%X%X%X%X%X%X%X%X%X%X%X%X%X%X%X%X%X%X%X",
"%X%X%X%X%X%X%X%X%X%X%X%X%X%X%X%X%X%X%X%X#X+XS i.u.c H.C k h K <X].z h k C M.c H.].G oX%X%X%X%X%X%X%X%X%X%X%X%X%X%X%X%X%X%X%X%X%X",
"%X%X%X%X%X%X%X%X%X%X%X%X%X%X%X%X%X%X%X%X%XI.L 1X].x &Xc.V k k n.K h k V v.).x ].1Xu.U.%X%X%X%X%X%X%X%X%X%X%X%X%X%X%X%X%X%X%X%X%X",
"%X%X%X%X#X%X%X%X%X%X%X%X%X%X%X#X%X%X%X%X%XU.i.1X[.+ &X<Xc.Z l C V l C v.,X'.+ b.1Xa.G.%X%X%X%X%X%X%X%X%X%X%X%X%X%X#X%X%X%X%X%X%X",
"%X%X%X%X%X%X%X%X%X%X%X%X%X%X%X%X%X%X%X%X%Xj.x.1Xv.= &X1X1Xe.w q 0 P  X1X1X'.; x.1Xv.h.%X%X%X%X%X%X%X%X%X#X%X%X%X%X%X%X%X%X%X%X%X",
"%X%X%X%X%X%X%X%X%X%X%X%X%X%X%X%X%X%X%X%X%X( x.*Xi.- &X1X1X3Xw.e r r.,X1X1X'.v G x.F ( %X%X%X%X%X%X%X%X%X%X%X%X%X%X%X%X%X%X%X%X%X",
"%X%X%X%X%X%X%X%X%X%X%X#X%X%X%X%X%X%X%X%X%X/ g N B b '.1X>Xw.`.1X>Xt.r.:X:X_.R B g c H #X#X#X%X%X%X%X%X%X%X%X%X%X%X%X%X%X%X%X%X%X",
"%X%X%X%X%X%X%X%X%X%X%X%X%X%X%X%X%X%X%X%X+XE #.H A R '.1X1X>X1X1X,X>Xy.e.S.y.} J b.].] OX%X%X%X%X%X%X%X%X%X%X%X%X%X%X%X%X#X%X%X%X",
"%X%X%X%X%X%X%X%X%X%X%X%X%X%X%X%X%X%X%X%XT.} <X=X| E +.a.p.p.p.p.s.u.J +.#.J W ..'.1XO.Y.%X%X%X%X%X%X%X#X%X%X%X%X%X%X%X%X%X%X%X%X",
"%X%X%X%X%X#X%X%X%X%X%X%X%X%X%X%X%X%X%X%XJ.*.1X(...B t O y t y y t O u t t t A $.W.1X3.S.%X%X%X%X%X%X%X%X%X%X%X%X%X#X%X%X%X%X%X%X",
"%X%X%X%X%X%X%X%X%X%X%X%X%X%X%X%X%X%X%X%XA.9.1XR.M k h i h p p h h y h i i h k m q.1X7.>.%X%X%X%X%X%X%X%X%X%X%X%X%X%X%X#X%X%X%X%X",
"%X%X%X%X%X%X%X%X%X%X%X%X%X%X%X%X%X%X%X%X=.` R.[ O h p i h i p h h i h h i h h a 1 X.7 A.%X%X%X%X%X%X%X%X%X%X%X%X%X%X%X%X%X%X%X%X",
"%X%X%X#X%X%X%X%X#X%X%X%X%X%X%X%X%X%X%X%X.X_ ) o p h i p h i h h h i h h i p h h O U 8.%X%X%X%X%X%X%X%X%X%X%X%X%X%X%X%X%X%X%X%X%X",
"%X%X%X%X%X%X%X%X%X%X%X%X#X%X%X%X%X%X%X%X%XXX1.d h h i h h y h h h p p h p i h h p ^ %X%X%X%X#X%X%X%X%X%X%X#X%X%X%X%X%X%X%X%X%X%X",
"%X%X%X%X%X%X%X%X%X%X%X%X%X%X%X%X%X%X%X%X%X%XoXG j p i h h i h h h p p h h i h j S T.%X%X%X%X%X%X%X%X%X%X%X%X%X%X%X%X%X%X%X%X%X%X",
"%X%X%X%X%X%X%X%X%X%X%X%X%X%X%X%X%X%X%X%X%X%X%X%Xj.f i h h i h h h p i h h i d d.@X%X%X%X%X%X%X%X%X%X%X%X%X%X%X%X%X%X%X%X%X%X%X%X",
"%X%X%X%X%X%X%X%X#X%X%X%X%X%X%X%X%X%X%X%X%X%X%X%X%XZ.D f d u h h h h u s f B g.%X%X%X%X%X%X%X%X%X%X#X%X%X%X%X%X%X%X%X%X%X%X#X%X%X",
"%X%X%X%X%X#X%X%X%X%X%X%X%X%X%X%X%X%X%X%X%X%X%X%Xy.&.%.< U = @ ~ ~ @ - ' 1 -.-.<.#X%X%X%X%X%X%X%X%X%X%X%X%X%X%X%X%X%X%X%X%X%X%X%X",
"%X%X%X%X%X%X%X%X%X%X%X%X%X%X%X%X%X%X%X%X%X%X%X+X_ R.W./././.) .X.X) /././.^.R._ +X%X%X%X%X%X%X%X%X%X%X%X%X%X%X%X%X%X%X%X%X%X%X%X",
"%X%X%X%X%X%X%X%X%X%X%X%X%X%X%X%X%X%X%X%X%X%X%X+XY R.W.W.^.E.) Y..X) W.^.E.W.R.U +X%X%X%X%X%X%X%X%X%X%X%X%X%X%X%X%X%X%X%X%X%X%X%X",
"%X%X%X%X%X%X%X%X%X%X%X%X%X%X#X%X%X%X%X%X%X%X%X%Xl.-.;.=.-.=.>.+X@X>.-.=.=.=.-.A.#X%X%X%X%X%X%X%X%X%X%X%X%X%X%X%X%X%X%X%X%X%X%X%X",
"%X#X%X%X%X%X#X%X%X%X%X%X%X%X%X%X%X%X%X%X%X%X%X%X%X%X%X%X%X%X%X%X%X%X%X%X%X%X%X%X%X%X%X%X%X%X%X%X%X%X%X#X%X%X%X%X%X%X%X#X%X%X%X%X",
"%X%X%X%X%X%X%X%X%X%X%X#X%X%X%X%X%X%X%X%X%X%X%X%X%X%X%X%X%X%X%X%X%X%X%X%X%X%X%X%X#X%X%X%X%X%X%X%X%X%X%X%X%X%X%X%X%X%X%X%X%X%X%X%X",
"%X%X%X%X%X%X%X%X%X%X%X%X%X%X%X%X%X%X%X%X%X%X%X%X%X%X%X%X%X%X%X%X%X%X%X%X%X%X%X%X%X%X%X%X%X%X%X%X%X%X%X%X%X%X%X%X%X%X%X%X%X%X%X#X",
"%X%X%X%X%X%X%X%X%X%X%X%X%X%X%X%X%X%X%X%X%X%X%X%X%X%X%X%X%X%X%X%X%X%X%X%X%X%X%X%X%X%X%X%X%X%X%X%X%X#X%X%X%X%X%X%X%X%X%X%X%X%X%X%X",
"%X%X%X%X%X%X%X%X%X%X%X%X%X%X%X%X%X%X%X%X%X%X%X%X%X%X%X%X%X%X%X%X%X%X%X%X%X%X%X%X%X%X%X%X%X%X%X%X%X%X%X%X%X%X#X%X%X%X%X%X%X%X%X%X"
};
